<svg width="307" height="62" viewBox="0 0 307 62" fill="none" xmlns="http://www.w3.org/2000/svg">
<path d="M49.4577 52V28.12H50.7057C51.1217 28.12 51.3617 28.32 51.4257 28.72L51.6417 32.176C52.1057 31.52 52.6017 30.92 53.1297 30.376C53.6577 29.832 54.2177 29.368 54.8097 28.984C55.4177 28.584 56.0577 28.28 56.7297 28.072C57.4177 27.848 58.1377 27.736 58.8897 27.736C60.6337 27.736 62.0257 28.248 63.0657 29.272C64.1057 30.28 64.8097 31.688 65.1777 33.496C65.4657 32.504 65.8657 31.648 66.3777 30.928C66.9057 30.208 67.5057 29.616 68.1777 29.152C68.8497 28.672 69.5777 28.32 70.3617 28.096C71.1617 27.856 71.9777 27.736 72.8097 27.736C73.9937 27.736 75.0577 27.936 76.0017 28.336C76.9457 28.72 77.7457 29.296 78.4017 30.064C79.0737 30.832 79.5857 31.776 79.9377 32.896C80.2897 34.016 80.4657 35.296 80.4657 36.736V52H78.1617V36.736C78.1617 34.4 77.6577 32.624 76.6497 31.408C75.6417 30.176 74.2017 29.56 72.3297 29.56C71.4977 29.56 70.6977 29.712 69.9297 30.016C69.1777 30.32 68.5057 30.776 67.9137 31.384C67.3377 31.976 66.8737 32.72 66.5217 33.616C66.1857 34.512 66.0177 35.552 66.0177 36.736V52H63.7377V36.736C63.7377 34.416 63.2737 32.64 62.3457 31.408C61.4177 30.176 60.0657 29.56 58.2897 29.56C56.9937 29.56 55.7937 29.952 54.6897 30.736C53.5857 31.504 52.6017 32.576 51.7377 33.952V52H49.4577ZM92.2595 59.68C92.1635 59.904 92.0355 60.088 91.8755 60.232C91.7315 60.376 91.5155 60.448 91.2275 60.448H89.5955L93.7955 51.112L83.6915 28.12H85.5875C85.8275 28.12 86.0115 28.184 86.1395 28.312C86.2835 28.424 86.3875 28.552 86.4515 28.696L94.4915 47.272C94.5875 47.512 94.6675 47.76 94.7315 48.016C94.8115 48.256 94.8835 48.504 94.9475 48.76C95.0275 48.504 95.1075 48.256 95.1875 48.016C95.2835 47.76 95.3795 47.512 95.4755 47.272L103.419 28.696C103.499 28.52 103.611 28.384 103.755 28.288C103.899 28.176 104.059 28.12 104.235 28.12H105.987L92.2595 59.68ZM134.658 44.296C134.962 44.296 135.226 44.416 135.45 44.656L137.682 47.08C136.274 48.776 134.546 50.088 132.498 51.016C130.45 51.928 128.002 52.384 125.154 52.384C122.626 52.384 120.338 51.952 118.29 51.088C116.258 50.208 114.522 48.992 113.082 47.44C111.642 45.872 110.53 44.008 109.746 41.848C108.978 39.688 108.594 37.312 108.594 34.72C108.594 32.128 109.002 29.752 109.818 27.592C110.65 25.416 111.81 23.552 113.298 22C114.802 20.432 116.594 19.216 118.674 18.352C120.77 17.488 123.074 17.056 125.586 17.056C128.082 17.056 130.282 17.464 132.186 18.28C134.106 19.08 135.77 20.152 137.178 21.496L135.33 24.112C135.202 24.288 135.05 24.44 134.874 24.568C134.698 24.696 134.458 24.76 134.154 24.76C133.834 24.76 133.466 24.616 133.05 24.328C132.65 24.024 132.13 23.696 131.49 23.344C130.866 22.976 130.074 22.648 129.114 22.36C128.17 22.056 126.986 21.904 125.562 21.904C123.914 21.904 122.402 22.192 121.026 22.768C119.65 23.344 118.466 24.184 117.474 25.288C116.482 26.392 115.706 27.736 115.146 29.32C114.602 30.904 114.33 32.704 114.33 34.72C114.33 36.752 114.618 38.568 115.194 40.168C115.77 41.752 116.562 43.096 117.57 44.2C118.578 45.288 119.762 46.12 121.122 46.696C122.482 47.272 123.946 47.56 125.514 47.56C126.474 47.56 127.33 47.512 128.082 47.416C128.85 47.304 129.554 47.136 130.194 46.912C130.834 46.672 131.434 46.376 131.994 46.024C132.57 45.672 133.138 45.24 133.698 44.728C134.018 44.44 134.338 44.296 134.658 44.296ZM151.641 27.136C153.449 27.136 155.081 27.432 156.537 28.024C158.009 28.616 159.257 29.456 160.281 30.544C161.321 31.632 162.121 32.952 162.681 34.504C163.241 36.056 163.521 37.8 163.521 39.736C163.521 41.672 163.241 43.416 162.681 44.968C162.121 46.52 161.321 47.848 160.281 48.952C159.257 50.04 158.009 50.88 156.537 51.472C155.081 52.064 153.449 52.36 151.641 52.36C149.817 52.36 148.169 52.064 146.697 51.472C145.241 50.88 143.993 50.04 142.953 48.952C141.913 47.848 141.113 46.52 140.553 44.968C139.993 43.416 139.713 41.672 139.713 39.736C139.713 37.8 139.993 36.056 140.553 34.504C141.113 32.952 141.913 31.632 142.953 30.544C143.993 29.456 145.241 28.616 146.697 28.024C148.169 27.432 149.817 27.136 151.641 27.136ZM151.641 48.328C153.849 48.328 155.489 47.592 156.561 46.12C157.649 44.632 158.193 42.512 158.193 39.76C158.193 37.008 157.649 34.888 156.561 33.4C155.489 31.896 153.849 31.144 151.641 31.144C149.401 31.144 147.737 31.896 146.649 33.4C145.561 34.888 145.017 37.008 145.017 39.76C145.017 42.512 145.561 44.632 146.649 46.12C147.737 47.592 149.401 48.328 151.641 48.328ZM185.783 32.32C185.623 32.528 185.471 32.688 185.327 32.8C185.183 32.912 184.975 32.968 184.703 32.968C184.431 32.968 184.143 32.872 183.839 32.68C183.551 32.488 183.199 32.28 182.783 32.056C182.383 31.816 181.895 31.6 181.319 31.408C180.743 31.216 180.023 31.12 179.159 31.12C178.039 31.12 177.055 31.32 176.207 31.72C175.375 32.12 174.671 32.696 174.095 33.448C173.535 34.184 173.111 35.088 172.823 36.16C172.551 37.216 172.415 38.408 172.415 39.736C172.415 41.112 172.567 42.336 172.871 43.408C173.175 44.48 173.607 45.384 174.167 46.12C174.743 46.856 175.431 47.416 176.231 47.8C177.047 48.184 177.959 48.376 178.967 48.376C179.959 48.376 180.767 48.256 181.391 48.016C182.015 47.776 182.535 47.512 182.951 47.224C183.367 46.936 183.719 46.672 184.007 46.432C184.311 46.192 184.631 46.072 184.967 46.072C185.383 46.072 185.703 46.232 185.927 46.552L187.391 48.448C186.799 49.168 186.143 49.776 185.423 50.272C184.703 50.768 183.943 51.176 183.143 51.496C182.343 51.8 181.511 52.016 180.647 52.144C179.783 52.288 178.911 52.36 178.031 52.36C176.511 52.36 175.087 52.08 173.759 51.52C172.447 50.944 171.295 50.12 170.303 49.048C169.327 47.96 168.551 46.64 167.975 45.088C167.415 43.52 167.135 41.736 167.135 39.736C167.135 37.928 167.391 36.256 167.903 34.72C168.415 33.168 169.159 31.832 170.135 30.712C171.127 29.592 172.351 28.72 173.807 28.096C175.263 27.456 176.943 27.136 178.847 27.136C180.623 27.136 182.183 27.424 183.527 28C184.887 28.576 186.095 29.392 187.151 30.448L185.783 32.32ZM196.702 16.48V37.072H197.806C198.158 37.072 198.446 37.024 198.67 36.928C198.894 36.832 199.126 36.632 199.366 36.328L206.23 28.48C206.47 28.16 206.734 27.92 207.022 27.76C207.31 27.6 207.678 27.52 208.126 27.52H212.806L204.55 36.832C204.07 37.456 203.542 37.952 202.966 38.32C203.286 38.544 203.566 38.8 203.806 39.088C204.046 39.36 204.278 39.672 204.502 40.024L213.31 52H208.702C208.286 52 207.926 51.936 207.622 51.808C207.334 51.664 207.078 51.408 206.854 51.04L199.774 41.44C199.534 41.072 199.294 40.84 199.054 40.744C198.814 40.632 198.454 40.576 197.974 40.576H196.702V52H191.542V16.48H196.702ZM224.468 52.384C222.436 52.384 220.868 51.816 219.764 50.68C218.676 49.528 218.132 47.912 218.132 45.832V31.576H215.444C215.156 31.576 214.908 31.488 214.7 31.312C214.492 31.12 214.388 30.84 214.388 30.472V28.384L218.348 27.808L219.476 20.728C219.556 20.456 219.692 20.24 219.884 20.08C220.076 19.904 220.332 19.816 220.652 19.816H223.292V27.856H230.084V31.576H223.292V45.472C223.292 46.352 223.508 47.024 223.94 47.488C224.372 47.952 224.948 48.184 225.668 48.184C226.068 48.184 226.412 48.136 226.7 48.04C226.988 47.928 227.236 47.816 227.444 47.704C227.652 47.576 227.828 47.464 227.972 47.368C228.132 47.256 228.284 47.2 228.428 47.2C228.716 47.2 228.948 47.36 229.124 47.68L230.66 50.2C229.86 50.904 228.916 51.448 227.828 51.832C226.74 52.2 225.62 52.384 224.468 52.384ZM247.231 41.296C245.391 41.36 243.839 41.512 242.575 41.752C241.311 41.976 240.287 42.272 239.503 42.64C238.719 42.992 238.151 43.416 237.799 43.912C237.463 44.408 237.295 44.952 237.295 45.544C237.295 46.12 237.383 46.616 237.559 47.032C237.751 47.432 238.007 47.768 238.327 48.04C238.663 48.296 239.047 48.488 239.479 48.616C239.927 48.728 240.415 48.784 240.943 48.784C242.287 48.784 243.439 48.536 244.399 48.04C245.375 47.528 246.319 46.792 247.231 45.832V41.296ZM233.551 30.928C236.319 28.352 239.615 27.064 243.439 27.064C244.847 27.064 246.095 27.296 247.183 27.76C248.287 28.208 249.207 28.848 249.943 29.68C250.695 30.512 251.263 31.504 251.647 32.656C252.047 33.792 252.247 35.056 252.247 36.448V52H249.943C249.447 52 249.071 51.928 248.815 51.784C248.559 51.624 248.343 51.312 248.167 50.848L247.663 48.856C247.039 49.416 246.423 49.92 245.815 50.368C245.207 50.8 244.575 51.168 243.919 51.472C243.279 51.776 242.583 52 241.831 52.144C241.095 52.304 240.279 52.384 239.383 52.384C238.391 52.384 237.463 52.248 236.599 51.976C235.751 51.704 235.015 51.296 234.391 50.752C233.767 50.192 233.271 49.504 232.903 48.688C232.551 47.872 232.375 46.912 232.375 45.808C232.375 44.864 232.623 43.944 233.119 43.048C233.631 42.152 234.463 41.352 235.615 40.648C236.783 39.928 238.311 39.336 240.199 38.872C242.103 38.408 244.447 38.144 247.231 38.08V36.448C247.231 34.688 246.855 33.376 246.103 32.512C245.351 31.648 244.247 31.216 242.791 31.216C241.799 31.216 240.967 31.344 240.295 31.6C239.623 31.84 239.039 32.104 238.543 32.392C238.047 32.68 237.607 32.952 237.223 33.208C236.839 33.448 236.431 33.568 235.999 33.568C235.647 33.568 235.343 33.48 235.087 33.304C234.847 33.112 234.647 32.88 234.487 32.608L233.551 30.928ZM263.668 27.52V52H258.508V27.52H263.668ZM264.532 20.128C264.532 20.592 264.436 21.032 264.244 21.448C264.068 21.864 263.82 22.232 263.5 22.552C263.18 22.856 262.804 23.104 262.372 23.296C261.956 23.472 261.508 23.56 261.028 23.56C260.564 23.56 260.124 23.472 259.708 23.296C259.308 23.104 258.956 22.856 258.652 22.552C258.348 22.232 258.1 21.864 257.908 21.448C257.732 21.032 257.644 20.592 257.644 20.128C257.644 19.648 257.732 19.2 257.908 18.784C258.1 18.368 258.348 18.008 258.652 17.704C258.956 17.384 259.308 17.136 259.708 16.96C260.124 16.768 260.564 16.672 261.028 16.672C261.508 16.672 261.956 16.768 262.372 16.96C262.804 17.136 263.18 17.384 263.5 17.704C263.82 18.008 264.068 18.368 264.244 18.784C264.436 19.2 264.532 19.648 264.532 20.128ZM275.407 16.48V52H270.247V16.48H275.407ZM296.392 31.96C296.264 32.184 296.12 32.344 295.96 32.44C295.8 32.536 295.6 32.584 295.36 32.584C295.088 32.584 294.792 32.504 294.472 32.344C294.152 32.168 293.776 31.976 293.344 31.768C292.912 31.56 292.4 31.376 291.808 31.216C291.232 31.04 290.552 30.952 289.768 30.952C289.128 30.952 288.544 31.032 288.016 31.192C287.504 31.336 287.064 31.552 286.696 31.84C286.344 32.112 286.072 32.44 285.88 32.824C285.688 33.192 285.592 33.592 285.592 34.024C285.592 34.6 285.768 35.08 286.12 35.464C286.472 35.848 286.936 36.184 287.512 36.472C288.088 36.744 288.744 36.992 289.48 37.216C290.216 37.44 290.968 37.68 291.736 37.936C292.504 38.192 293.256 38.488 293.992 38.824C294.728 39.16 295.384 39.576 295.96 40.072C296.536 40.552 297 41.144 297.352 41.848C297.704 42.536 297.88 43.376 297.88 44.368C297.88 45.52 297.672 46.584 297.256 47.56C296.84 48.536 296.232 49.384 295.432 50.104C294.632 50.824 293.632 51.384 292.432 51.784C291.248 52.184 289.888 52.384 288.352 52.384C287.504 52.384 286.68 52.304 285.88 52.144C285.096 52 284.344 51.8 283.624 51.544C282.92 51.272 282.256 50.952 281.632 50.584C281.024 50.216 280.48 49.816 280 49.384L281.2 47.416C281.344 47.176 281.52 46.992 281.728 46.864C281.952 46.72 282.224 46.648 282.544 46.648C282.88 46.648 283.208 46.76 283.528 46.984C283.864 47.192 284.248 47.424 284.68 47.68C285.128 47.936 285.664 48.176 286.288 48.4C286.912 48.608 287.688 48.712 288.616 48.712C289.384 48.712 290.048 48.624 290.608 48.448C291.168 48.256 291.632 48 292 47.68C292.368 47.36 292.64 47 292.816 46.6C292.992 46.184 293.08 45.744 293.08 45.28C293.08 44.656 292.904 44.144 292.552 43.744C292.2 43.344 291.728 43 291.136 42.712C290.56 42.424 289.896 42.168 289.144 41.944C288.408 41.72 287.656 41.48 286.888 41.224C286.12 40.968 285.36 40.672 284.608 40.336C283.872 40 283.208 39.576 282.616 39.064C282.04 38.536 281.576 37.904 281.224 37.168C280.872 36.416 280.696 35.504 280.696 34.432C280.696 33.456 280.888 32.528 281.272 31.648C281.672 30.768 282.248 29.992 283 29.32C283.768 28.648 284.704 28.12 285.808 27.736C286.928 27.336 288.216 27.136 289.672 27.136C291.32 27.136 292.816 27.4 294.16 27.928C295.504 28.456 296.632 29.176 297.544 30.088L296.392 31.96Z" fill="#A18054"/>
<path d="M29.1664 32.1363H29.1667L46.9714 10.1013H36.6919L41.5794 1.66236L38.5092 0L32.6588 10.1013H7.84308L25.6478 32.1363V49.5976H18.5566V53H36.2576V49.5976H29.1664V32.1363ZM15.0576 13.5035H39.7569L27.4073 28.7874L15.0576 13.5035Z" fill="#A18054"/>
</svg>
